<svg xmlns="http://www.w3.org/2000/svg" version="1.0" width="449.000000pt" height="64.000000pt" viewBox="0 0 449.000000 64.000000" preserveAspectRatio="xMidYMid meet">
<g xmlns="http://www.w3.org/2000/svg" transform="translate(0.000000,64.000000) scale(0.100000,-0.100000)" fill="#000000" stroke="none">
<path d="M266 609 c-98 -23 -152 -92 -144 -184 6 -68 31 -102 113 -150 81 -47 100 -71 85 -109 -5 -14 -21 -31 -35 -36 -42 -16 -116 -11 -162 10 l-43 19 -26 -44 c-14 -25 -23 -49 -20 -54 14 -23 113 -46 191 -45 146 3 225 65 225 180 0 66 -28 109 -100 150 -67 38 -110 77 -110 99 0 9 11 27 25 40 19 20 34 25 75 25 28 0 66 -6 85 -14 37 -16 41 -14 68 40 20 39 14 46 -62 68 -60 18 -105 19 -165 5z"/>
<path d="M715 592 l-50 -7 -67 -265 c-36 -146 -67 -273 -67 -282 -1 -15 8 -18 58 -18 l59 0 16 68 c38 154 32 142 76 142 l39 0 29 -78 c17 -42 34 -90 37 -105 7 -26 9 -27 76 -27 l68 0 -13 38 c-7 20 -28 73 -46 116 -19 44 -29 81 -24 83 37 13 92 54 111 82 31 45 32 130 3 177 -40 64 -161 94 -305 76z m169 -112 c54 -20 42 -100 -19 -126 -40 -16 -135 -19 -135 -4 0 6 7 40 16 75 l16 65 49 0 c26 0 59 -4 73 -10z"/>
<path d="M1215 588 c-6 -16 -135 -554 -135 -562 0 -3 27 -6 59 -6 l59 0 37 155 c51 214 54 227 67 219 13 -8 92 -176 138 -291 l33 -83 43 0 c32 0 44 4 48 17 3 10 32 133 66 273 34 140 63 263 66 273 5 15 -2 17 -55 17 l-60 0 -10 -37 c-6 -21 -24 -98 -42 -171 -17 -72 -34 -132 -38 -132 -4 0 -26 42 -49 93 -24 50 -63 127 -88 170 l-45 77 -45 0 c-27 0 -46 -5 -49 -12z"/>
<path d="M1805 556 c-93 -44 -137 -121 -137 -240 0 -157 92 -255 240 -256 67 0 123 18 159 52 21 20 22 23 7 39 -15 16 -17 16 -49 -5 -73 -50 -173 -40 -236 23 -93 92 -68 279 45 338 48 25 133 22 184 -7 41 -23 42 -23 56 -4 18 24 6 40 -49 65 -59 27 -157 25 -220 -5z"/>
<path d="M2312 567 c-96 -35 -152 -125 -152 -247 0 -166 94 -260 256 -260 97 1 170 46 217 135 31 57 31 193 0 250 -27 52 -78 100 -125 119 -44 19 -148 20 -196 3z m195 -68 c53 -33 76 -81 80 -168 4 -65 1 -83 -19 -121 -79 -152 -300 -118 -338 53 -34 151 63 279 200 261 25 -3 59 -15 77 -25z"/>
<path d="M2760 320 l0 -262 133 4 c110 3 139 8 173 26 174 90 176 366 4 462 -40 22 -59 25 -177 28 l-133 4 0 -262z m287 174 c110 -82 110 -266 0 -348 -23 -17 -46 -22 -128 -24 l-99 -4 0 202 0 202 99 -4 c82 -2 105 -7 128 -24z"/>
<path d="M3310 320 l0 -260 30 0 30 0 0 260 0 260 -30 0 -30 0 0 -260z"/>
<path d="M3520 321 l0 -261 25 0 25 0 0 195 c0 107 3 195 8 195 4 0 74 -88 156 -195 119 -156 154 -195 172 -195 l24 0 0 260 0 260 -30 0 -30 0 -2 -197 -3 -198 -150 195 c-105 136 -157 196 -173 198 l-22 3 0 -260z"/>
<path d="M4164 557 c-92 -44 -137 -124 -136 -244 1 -67 27 -140 65 -182 66 -72 222 -94 325 -46 l52 24 0 101 0 100 -75 0 c-73 0 -75 -1 -75 -25 0 -23 4 -25 45 -25 l45 0 0 -59 c0 -57 -1 -59 -32 -72 -41 -17 -145 -17 -178 0 -49 26 -81 65 -96 119 -40 136 27 258 150 276 49 8 115 -6 153 -31 22 -15 26 -15 40 0 39 39 -34 80 -152 85 -68 2 -88 -1 -131 -21z"/>
</g>
<defs>
<filter id="filter0_d" x="0.758789" y="9.5" width="229.171" height="36.7402" filterUnits="userSpaceOnUse" color-interpolation-filters="sRGB">
<feFlood flood-opacity="0" result="BackgroundImageFix"/>
<feColorMatrix in="SourceAlpha" type="matrix" values="0 0 0 0 0 0 0 0 0 0 0 0 0 0 0 0 0 0 127 0"/>
<feOffset dy="4"/>
<feGaussianBlur stdDeviation="2"/>
<feColorMatrix type="matrix" values="0 0 0 0 0 0 0 0 0 0 0 0 0 0 0 0 0 0 0.25 0"/>
<feBlend mode="normal" in2="BackgroundImageFix" result="effect1_dropShadow"/>
<feBlend mode="normal" in="SourceGraphic" in2="effect1_dropShadow" result="shape"/>
</filter>
</defs>
</svg>





